# xmcd
#
# Track frame offsets:
#	150
#	15180
#	28230
#	45290
#	62358
#	82855
#	98268
#	110065
#	123238
#	140163
#	168140
#
# Disc length: 2349
#
# Revision: 3
# Processed by: cddbd v1.5.1PL0 Copyright (c) Steve Scherf et al.
# Submitted via: EasyCDDAExtractor 7.1.1.1
# Normalized: r2:DSETVAR1
#
DISCID=76092b0b
DTITLE=Various Artist - 90's Country Hits
DYEAR=1900
DGENRE=Country
TTITLE0=Alabama - Down Home
TTITLE1=John Anderson - I've Got it Made
TTITLE2=Lorrie Morgan - Half Enough
TTITLE3=Doug Supernaw - I Don't Call Him Daddy
TTITLE4=Lari White - Now I Know
TTITLE5=Lonestar - Tequila Talkin'
TTITLE6=Martina McBride - My Baby Loves Me
TTITLE7=Aaron Tippin - I Wouldn't Have it Any Other Way
TTITLE8=Restless Heart - When She Cries
TTITLE9=Shenandoah - I Want to Be Loved like That
TTITLE10=Data Track - Data Track
EXTD=
EXTT0=
EXTT1=
EXTT2=
EXTT3=
EXTT4=
EXTT5=
EXTT6=
EXTT7=
EXTT8=
EXTT9=
EXTT10=
PLAYORDER=
